<svg width="78" height="78" viewBox="0 0 78 78" fill="none" xmlns="http://www.w3.org/2000/svg">
<path d="M53.2441 26.8887H49.6717C48.8947 26.8887 48.1559 27.2619 47.6988 27.9018L35.7246 44.5072L30.3012 36.9814C29.8441 36.3492 29.1129 35.9684 28.3283 35.9684H24.7558C24.2607 35.9684 23.9713 36.532 24.2607 36.9357L33.7517 50.0982C33.976 50.4112 34.2715 50.6662 34.614 50.8421C34.9564 51.018 35.3358 51.1097 35.7208 51.1097C36.1058 51.1097 36.4852 51.018 36.8276 50.8421C37.1701 50.6662 37.4656 50.4112 37.6898 50.0982L53.7316 27.8561C54.0287 27.4523 53.7392 26.8887 53.2441 26.8887V26.8887Z" fill="white"/>
<path d="M39 4.875C20.1551 4.875 4.875 20.1551 4.875 39C4.875 57.8449 20.1551 73.125 39 73.125C57.8449 73.125 73.125 57.8449 73.125 39C73.125 20.1551 57.8449 4.875 39 4.875ZM39 67.3359C23.3543 67.3359 10.6641 54.6457 10.6641 39C10.6641 23.3543 23.3543 10.6641 39 10.6641C54.6457 10.6641 67.3359 23.3543 67.3359 39C67.3359 54.6457 54.6457 67.3359 39 67.3359Z" fill="white"/>
</svg>
