<svg width="59" height="59" viewBox="0 0 59 59" fill="none" xmlns="http://www.w3.org/2000/svg">
<path d="M1.64934 1.64934C2.70574 0.593269 4.13832 0 5.63206 0C7.1258 0 8.55839 0.593269 9.61478 1.64934L29.534 21.5686L49.4532 1.64934C50.5157 0.623199 51.9387 0.0553973 53.4157 0.0682323C54.8927 0.0810672 56.3056 0.673512 57.3501 1.71797C58.3945 2.76242 58.987 4.17531 58.9998 5.65234C59.0126 7.12936 58.4448 8.55234 57.4187 9.61478L37.4994 29.534L57.4187 49.4532C58.4448 50.5157 59.0126 51.9387 58.9998 53.4157C58.987 54.8927 58.3945 56.3056 57.3501 57.3501C56.3056 58.3945 54.8927 58.987 53.4157 58.9998C51.9387 59.0126 50.5157 58.4448 49.4532 57.4187L29.534 37.4994L9.61478 57.4187C8.55234 58.4448 7.12936 59.0126 5.65234 58.9998C4.17531 58.987 2.76242 58.3945 1.71797 57.3501C0.673512 56.3056 0.0810672 54.8927 0.0682323 53.4157C0.0553973 51.9387 0.623199 50.5157 1.64934 49.4532L21.5686 29.534L1.64934 9.61478C0.593269 8.55839 0 7.1258 0 5.63206C0 4.13832 0.593269 2.70574 1.64934 1.64934V1.64934Z" fill="#F8F7F7"/>
</svg>
