<svg width="47" height="47" viewBox="0 0 47 47" fill="none" xmlns="http://www.w3.org/2000/svg">
<path d="M36.0143 12.7628L26.7802 14.9477L17.9823 7.71902C17.6432 7.44018 17.1598 7.41577 16.7942 7.65886C16.4287 7.90196 16.2642 8.35718 16.3902 8.77779L19.6549 19.6861L14.068 27.3573C13.8216 27.6965 13.8117 28.1511 14.0437 28.5C14.2752 28.848 14.6993 29.0163 15.1068 28.9194L24.3371 26.7359L33.3196 34.2405C33.6593 34.5238 34.1452 34.5501 34.5141 34.3048C34.8821 34.0601 35.0466 33.6012 34.9161 33.1776L31.4693 21.9917L37.0534 14.3235C37.2992 13.9871 37.3095 13.5312 37.0774 13.1823C36.846 12.8342 36.4216 12.6673 36.0143 12.7628Z" fill="#161616"/>
<path d="M25.4529 32.9981L23.052 33.5667L20.4753 31.3172C20.1356 31.0195 19.6394 30.9867 19.2639 31.2365C18.8883 31.4862 18.7267 31.9564 18.8685 32.3845L19.9464 35.6308L18.4944 37.6244C18.2475 37.9627 18.2386 38.4189 18.4701 38.767C18.7015 39.1151 19.1257 39.2834 19.5332 39.1865L21.9216 38.6226L24.6825 41.1363C25.0216 41.444 25.5266 41.4829 25.9088 41.2287C26.291 40.9745 26.4505 40.4938 26.2974 40.0612L25.0469 36.543L26.4906 34.5585C26.7381 34.221 26.7469 33.7648 26.5155 33.4167C26.284 33.0687 25.8599 32.9004 25.4529 32.9981ZM9.8449 17.3618L7.3919 17.9422L5.35286 16.458C5.0145 16.211 4.5591 16.2016 4.21021 16.4337C3.86214 16.6651 3.69469 17.0887 3.79074 17.4968L4.37175 19.9507L2.88698 21.9889C2.64058 22.3281 2.63118 22.7835 2.86264 23.1315C3.09411 23.4796 3.51826 23.6479 3.9258 23.551L6.37963 22.97L8.41784 24.4547C8.75703 24.7011 9.21243 24.7105 9.56049 24.4791C9.90856 24.2476 10.076 23.824 9.97996 23.4159L9.39895 20.9621L10.8837 18.9239C11.1301 18.5847 11.1395 18.1293 10.9081 17.7812C10.6766 17.4332 10.253 17.2657 9.8449 17.3618Z" fill="#161616"/>
</svg>
